<?xml version="1.0" standalone="no"?>
<!DOCTYPE svg PUBLIC "-//W3C//DTD SVG 20010904//EN"
 "http://www.w3.org/TR/2001/REC-SVG-20010904/DTD/svg10.dtd">
<svg version="1.0" xmlns="http://www.w3.org/2000/svg"
 width="1024.000000pt" height="1024.000000pt" viewBox="0 0 1024.000000 1024.000000"
 preserveAspectRatio="xMidYMid meet">

<g transform="translate(0.000000,1024.000000) scale(0.100000,-0.100000)"
fill="#000000" stroke="none">
<path d="M0 5120 l0 -5120 5120 0 5120 0 0 5120 0 5120 -5120 0 -5120 0 0
-5120z m6175 2528 c118 -33 189 -66 279 -128 447 -309 483 -974 72 -1329 -111
-96 -214 -149 -365 -187 -92 -24 -101 -24 -567 -24 l-474 0 0 851 0 851 483
-5 c478 -4 483 -4 572 -29z m1 -1707 c156 -40 287 -116 396 -228 163 -170 242
-367 241 -603 -1 -380 -258 -710 -632 -812 -105 -29 -304 -31 -411 -4 -301 75
-532 297 -620 596 -34 115 -39 298 -11 413 62 262 220 462 456 579 172 86 392
108 581 59z m-1066 -2142 c0 -529 -7 -591 -80 -743 -200 -417 -666 -598 -1096
-426 -107 42 -180 93 -279 194 -74 75 -99 110 -141 191 -74 145 -98 240 -98
395 0 98 5 143 22 210 72 268 251 476 498 577 148 60 161 61 692 62 l482 1 0
-461z"/>
</g>
</svg>
